# xmcd
#
# Track frame offsets:
#	150
#	21691
#	33906
#	50414
#	63699
#	90364
#	108629
#	122854
#	138685
#	158478
#	184371
#	204739
#
# Disc length: 3012 seconds
#
# Revision: 1
# Processed by: cddbd v1.5PL3 Copyright (c) Steve Scherf et al.
# Submitted via: EasyCDDAExtractor 5.1.0
#
DISCID=b20bc20c
DTITLE=Ben Krakauer and Pete Frostic - Wide Open
DYEAR=2003
DGENRE=Bluegrass
TTITLE0=Wide Open
TTITLE1=Playtime
TTITLE2=Cala's Pond
TTITLE3=8 String Fiddle Swing
TTITLE4=Chega de Saudade
TTITLE5=Binda's Run
TTITLE6=Pears on the Roof
TTITLE7=#35
TTITLE8=Fiddle Tunes
TTITLE9=Improvisation
TTITLE10=Deer Legged Table
TTITLE11=The Dragon
EXTD=
EXTT0=(Krakauer) The opening themes for this song are based on the open tuning
EXTT0=s of banjo, guitar, and mandolin.
EXTT1=(Krakauer) This is just a fun tune to play, written for its groove.
EXTT2=(Frostic) I wrote the second of these jigs next to a little pond in Rhod
EXTT2=e Island that is bordered with green and then again by the ocean.
EXTT3=(Frostic) This tune was originally written for a contest I never entered
EXTT3=
EXTT4=(Jobim) This is our adaptation of a bossa written by Antonio Jobim.
EXTT5=(Krakauer) Inspired by the sounds of Solas, Liz Carroll, etc. Named afte
EXTT5=r a character in an Italo Calvino short story, "Fear on the Footpath".
EXTT6=(Frostic) The mandocello is an instrument so impossible to imagine that 
EXTT6=it must exist. I wrote this one in Charlottesville, during a nasty hurri
EXTT6=cane.
EXTT7=(Frostic) I really can't say what this is, it seems to have two moods. I
EXTT7=wrote the second part on the beach in North Carolina after a storm. I d
EXTT7=on't remember writing the first half.
EXTT8=(traditional) Thanks to Seamus Egan for the Mason's Apron arrangement.
EXTT9=(Krakauer/Frostic) We did this one last, and it felt great to record som
EXTT9=e very different sounds from the rest of the material on the album.
EXTT10=(Krakauer) There is one where I live.
EXTT11=
PLAYORDER=
